<?xml version="1.0" encoding="UTF-8"?>
<svg width="281px" height="598px" viewBox="0 0 281 598" version="1.1" xmlns="http://www.w3.org/2000/svg" xmlns:xlink="http://www.w3.org/1999/xlink">
    <!-- Generator: Sketch 60 (88103) - https://sketch.com -->
    <title>Fill 1</title>
    <desc>Created with Sketch.</desc>
    <g id="Page-1" stroke="none" stroke-width="1" fill="none" fill-rule="evenodd" opacity="0.225748698">
        <g id="Home" transform="translate(0.000000, -623.000000)" fill="#B9DBAF">
            <path d="M83.2844744,810.169842 C16.9741403,761.930609 62.1426848,653.178975 10.151378,626.951519 C-2.28906723,620.670544 -18.6053782,620.606084 -37.0144502,625.396746 L-37.0454158,625.396746 C-88.4045075,638.781205 -156.012818,689.652981 -201.591657,747.563781 C-211.621943,760.313954 -220.571013,773.35033 -228.031151,786.448588 C-247.173077,819.905869 -256.664045,853.430189 -249.743225,881.655902 C-249.456793,882.988934 -249.074883,884.288446 -248.695554,885.590536 C-226.952515,956.759454 -105.226591,956.885796 -92.0223263,1037.50712 C-87.9890519,1062.21332 -96.3059062,1081.08203 -105.510442,1098.40112 C-117.003855,1119.96426 -129.857175,1139.15527 -121.857719,1164.20697 C-117.796059,1176.95973 -110.655899,1189.54746 -100.973976,1201.57053 C-49.6819767,1265.22342 73.1251645,1313.77721 189.233406,1296.4607 C231.132495,1290.21324 274.933391,1275.05485 315.116467,1251.5837 C327.910437,1244.16307 340.28637,1235.8529 352.159112,1226.78467 C353.46225,1225.73784 354.793772,1224.72196 356.094329,1223.67513 C363.270615,1218.00007 370.219821,1212.03624 376.918721,1205.75784 C378.410232,1204.39129 379.868198,1202.99638 381.331324,1201.57053 C382.755743,1200.17561 384.154358,1198.7807 385.550392,1197.35227 C391.041632,1191.86544 396.310952,1186.15687 401.327385,1180.22398 C402.119589,1179.30607 402.880828,1178.41652 403.611101,1177.49861 C405.20067,1175.6267 406.723148,1173.72384 408.245625,1171.79004 C415.57674,1162.59032 422.337571,1152.94969 428.497152,1142.83206 C432.367857,1136.55367 435.985676,1130.08447 439.353189,1123.42447 C439.985404,1122.21778 440.591814,1120.98272 441.193064,1119.74252 C443.510326,1114.98795 445.73211,1110.10189 447.76294,1105.15394 C448.526759,1103.41095 449.254452,1101.63443 449.951179,1099.85792 C451.096907,1096.94175 452.206509,1093.95854 453.25418,1090.97792 C456.523635,1081.81172 459.315704,1072.35931 461.602,1062.62586 C466.014604,1043.94538 468.775706,1023.55283 469.663388,1002.52343 C473.185729,921.523079 449.287998,831.578273 387.423813,797.040643 C288.235713,741.633467 165.173105,869.730815 83.2844744,810.169842 Z" id="Fill-1"></path>
        </g>
    </g>
</svg>