<svg xmlns="http://www.w3.org/2000/svg" width="322" height="262" viewBox="0 0 322 262">
    <g fill="none" fill-rule="evenodd">
        <path fill="#5AAE40" d="M60.291 110.918c-7.493-6.225-8.53-17.357-2.316-24.864 6.214-7.506 17.327-8.545 24.82-2.32 7.496 6.225 8.533 17.357 2.318 24.863-6.215 7.507-17.328 8.545-24.822 2.321zm41.912.822a33.796 33.796 0 0 0 2.769-8.993l6.338-1.906-.668-7.17-.668-7.17-6.582-.7a33.657 33.657 0 0 0-4.382-8.323l3.135-5.833-5.535-4.597-5.535-4.597-5.142 4.164a33.649 33.649 0 0 0-8.976-2.773l-1.904-6.35-7.158.67-7.159.669-.697 6.593a33.569 33.569 0 0 0-8.31 4.39l-5.822-3.14-4.59 5.544-4.59 5.544 4.158 5.15a33.693 33.693 0 0 0-2.768 8.992l-6.339 1.907.667 7.17.67 7.17 6.58.7a33.726 33.726 0 0 0 4.383 8.323l-3.134 5.832 5.533 4.597 5.535 4.598 5.142-4.165a33.574 33.574 0 0 0 8.978 2.774l1.903 6.349 7.157-.67 7.159-.669.698-6.592a33.644 33.644 0 0 0 8.31-4.39l5.823 3.14 4.589-5.544 4.59-5.542-4.158-5.152z" opacity=".698"/>
        <path fill="#F7F9F7" d="M88.554 199.3c.16-11.089 14.902-31.716 14.902-31.716s.681-.292.69-.261c.01.009.761-.106.761-.096.016 0 2.291-2.172 2.306-2.172.54 1.972 5.425 29.829 6.621 46.046-13.844-2.725-25.36-6.513-25.28-11.802m123.539-50.08c.877-11.852 1.488-22.935 1.834-33.271-2.856-1.515-6.286-3.287-9.032-4.591-8.5-4.054-20.342-9.513-27.94-13.005-4.448-2.048-8.807-3.543-8.807-3.543s-30.369-2.915-32.834-2.76c-.778.046-4.573 1.37-9.553 3.272-10.77 4.095-31.532 12.428-34.838 14.807-4.848 3.477-22.196 88.655-22.657 94.44-.45 5.62 23.594 13.307 45.86 19.197-.017 8.636-.19 20.733-.387 31.776-.03 1.887-.064 3.738-.1 5.535h97.427c-.13-1.897-.246-3.768-.341-5.535-.01-.236-.024-.466-.034-.698-.371-7.48-1.823-20.877-1.453-33.924 0 0-.235-13.752 1.127-19.672.15-26.143 1.728-52.027 1.728-52.027"/>
        <path fill="#5AAE40" d="M213.897 255.54c-.641-4.62-1.248-9.237-1.794-13.757 0-.024-.01-.04-.01-.066-.176-1.505-.356-2.99-.527-4.47-.009-.07-.013-.15-.023-.236-.713-6.225-1.303-12.198-1.728-17.666-.322-4.19-.032-8.284.544-12.288 1.694-27.963 2.536-57.446 2.536-57.446.89-12.067 1.403-23.346 1.742-33.858 0 0-38.133-18.053-41.59-19.088 0 0 7.234 17.016 12.659 55.043 2.082 14.606 5.946 39.192 8.75 64.285V216c1.518 13.541 4.363 27.334 6.527 39.542.33 1.887.646 3.733.936 5.535h12.763c-.27-1.841-.53-3.688-.785-5.535M104.528 189.228c-.336-12.725-.276-21.605-.276-21.605 1.257 4.361 2.995 16.82 4.528 29.203-5.154-2.599-4.186-5.028-4.252-7.598m45.879 21.395c1.502-14.139 2.854-28.248 2.203-35.979-5.26-62.157-20.141-78.61-22.3-81.02-1.668.638-8.02 3.027-9.878 3.764-10.179 4.019-30.927 11.385-33.721 13.397-4.85 3.477-23.964 92.776-24.54 98.55-.387 3.904 24.559 12.06 50.01 19.342-.235 6.99.425 16.849-1.894 27.144-.405 1.826-1.006 2.98-1.1 5.394l35.478-.14c.216-1.836.442-3.677.667-5.534.676-5.554 1.382-11.243 2.083-17.29a1603.23 1603.23 0 0 0 17.872 4.536s9.994-16.925 12.895-23.778c.495-1.169-12.368-4.265-27.775-8.386"/>
        <path fill="#F4D6CB" d="M133.72 93.023s3.863-7.31 2.796-28.068c-.295-5.75 30.155 13.637 30.155 13.637s-.106 1.982-.172 4.657a118.783 118.783 0 0 0-.054 3.587c0 .347.004.692.004 1.04.006.566.01 1.128.02 1.69.017.697.042 1.38.076 2.037.036.748.084 1.454.156 2.103.124 1.253.861 3.466 1.126 4.073 1.398 3.227-22.707 3.413-34.107-4.756"/>
        <path fill="#6CD83F" d="M159.249 106.225l5.612 7.553s-3.287 4.41-9.127 1.154l3.515-8.707z"/>
        <path fill="#77C160" d="M163.36 114.084s20.56 50.301 16.173 114.194l-6.484 11.789-7.312-10.04s-1.18-84.857-7.017-116.144l4.64.2z"/>
        <path fill="#F4D6CB" d="M165.258 99.184l-6.01 7.041s-9.642-1.87-12.473-6.917c-2.832-5.045 18.483-.124 18.483-.124"/>
        <path fill="#DAF4DA" d="M166.636 93.021s-.698 5.367-7.386 13.204l7.3 9.826 3.952-20.384-3.866-2.646zM135.555 86.565s13.943 15.8 23.694 19.66l-4.534 11.234-22.253-24.588 3.093-6.306z"/>
        <path fill="#5AAE40" d="M278.9 229.494s-18.509-17.98-30.647-20.97c-5.612-1.384-13.004-9.144-20.028-18.267-2.314-3.003-4.586-6.155-6.746-9.275-.006-.007-.006-.014-.006-.014-8.617-12.462-15.37-24.409-15.37-24.409s-25.47-29.9-5.03-43.229c0 0 8.759-.19 13.563 2.425 4.94 2.687 15.479 24.718 17.266 28.62 1.786 3.895 21.143 40.132 22.44 40.946 1.296.814 3.455 3.793 11.2 7.97 9.482 5.114 24.377 20.081 24.377 20.081l-11.02 16.122z"/>
        <path fill="#F4D6CB" d="M190.057 250.303s-2.585-.105-3.694-.702c0 0-1.934-1.243-3.36-2.043-.456-.254-.857-.463-1.13-.572-1.14-.452-3.781-1.106-6.217-2.967-2.433-1.858-10.368-9.292-10.368-9.292l5.128-7.897 2.367-7.82s18.499 1.843 20.967 3.312c.24.144.472.297.678.455 1.97 1.447 2.828 3.354 3.776 4.23.345.324 3.567 3.778 3.387 5.18-.248 1.944-1.208 3.193-2.411 3.783 0 0-.654 3.786-2.608 5.48 0 0-.49 3.513-3.52 4.924 0 0-.895 3.509-2.995 3.929M160.603 11.402s33.434-8.073 26.392 34.33c-7.044 42.4-15.063 45.844-35.43 37.389-20.368-8.455-18.953-35.574-20.165-48.846-1.214-13.27 18.507-22.254 29.203-22.873"/>
        <path fill="#EAD0CA" d="M143.036 40.768c-.495-3.725-7.878-4.984-8.389.618-.51 5.603 3.572 15.363 6.351 14.355 2.779-1.007 2.724-9.839 2.038-14.973"/>
        <path fill="#5AAE40" d="M133.352 55.95s.67-13.336 5.522-13.823c4.854-.488 5.68 4.868 5.68 4.868l4.919.855s-1.721-11.655 3.1-13.767c4.821-2.113 31.525 5.966 35.37 2.482 3.844-3.485 1.665-27.147-5.425-30.286-7.09-3.138-26.647-10.117-40.756-.245 0 0-11.127-1.106-12.643 7.899-1.517 9.003 1.115 35.386 4.233 42.017M179.093 219.01l-13.805 23.775s-36.572-9.438-45.105-11.85l19.506-23.256s28.76 6.582 39.404 11.331"/>
        <path fill="#C8BBB5" d="M166.545 91.603h-.005c-17.933-1.831-24.884-15.66-24.884-15.66 11.279 11.2 24.79 10.893 24.79 10.893 0 .347.004.692.004 1.04.005.566.01 1.128.02 1.69.015.697.04 1.38.075 2.037"/>
        <path fill="#EEA886" d="M205.044 199.483c20.786 21.432 48.247 48.422 48.247 48.422l10.735-20.413s-24.391-28.643-40.928-47.755c-5.068 2.49-14.373 8.428-18.054 19.746M192.206 228.301s5.596 2.708 7.057 3.914c1.46 1.208 7.381 5.647 8.817 6.692 1.433 1.043-2.165 4.015-12.75-.577-10.587-4.594-3.124-10.029-3.124-10.029"/>
        <path fill="#A5D2A9" d="M192.695 170.36l-9.753 90.832h128.374l9.753-90.833z"/>
        <path fill="#69A28A" d="M172.726 261.191h21.441v-8.172h-21.44z"/>
        <g>
            <path fill="#69A28A" d="M245.113 213.586c-1.035 4.089 1.327 7.933 5.275 8.584 3.947.652 7.987-2.135 9.021-6.225 1.035-4.09-1.327-7.934-5.275-8.586-3.947-.652-7.986 2.136-9.021 6.227"/>
            <path fill="#9CD185" d="M7.617 231.433a7.261 7.261 0 0 1-7.264-7.259V138.44a7.263 7.263 0 0 1 7.264-7.262h54.298a7.262 7.262 0 0 1 7.263 7.262v85.734a7.26 7.26 0 0 1-7.263 7.259H7.617z"/>
            <path fill="#E6FFE7" d="M58.3 223.05h3.568v-27.126H58.3zM51.255 223.05h3.566v-24.086h-3.566zM43.6 223.05h3.567v-20.132H43.6zM35.74 223.05h3.565v-15.146H35.74zM14.462 204.69l-.774-.275 6.725-18.856 14.583-3.855 5.24-20.696 11.255-4.965 2.52-16.093.81.127-2.589 16.536-11.298 4.983-5.26 20.776-14.633 3.87z"/>
            <path fill="#9CD185" d="M37.03 180.654a2.188 2.188 0 1 1-3.388 2.77 2.188 2.188 0 0 1 3.387-2.77"/>
            <path fill="#E6FFE7" d="M34.21 180.662a1.777 1.777 0 1 0 2.248 2.753 1.777 1.777 0 0 0-2.248-2.753m2.769 3.387a2.6 2.6 0 0 1-3.29-4.023 2.598 2.598 0 1 1 3.29 4.023"/>
            <path fill="#9CD185" d="M42.34 160.043a2.188 2.188 0 1 1-3.387 2.768 2.188 2.188 0 0 1 3.386-2.768"/>
            <path fill="#E6FFE7" d="M39.52 160.051a1.777 1.777 0 1 0 2.248 2.753 1.777 1.777 0 0 0-2.248-2.753m2.769 3.387a2.601 2.601 0 0 1-3.656-.367 2.601 2.601 0 0 1 .367-3.656 2.597 2.597 0 1 1 3.29 4.023"/>
            <path fill="#9CD185" d="M53.419 154.937a2.186 2.186 0 1 1-3.388 2.768 2.185 2.185 0 0 1 .309-3.077 2.189 2.189 0 0 1 3.079.309"/>
            <path fill="#E6FFE7" d="M50.6 154.945a1.78 1.78 0 0 0-.252 2.5 1.78 1.78 0 0 0 2.502.253 1.78 1.78 0 0 0 .252-2.501 1.781 1.781 0 0 0-2.503-.252m2.77 3.387a2.6 2.6 0 0 1-3.656-.367 2.6 2.6 0 0 1 .368-3.656 2.598 2.598 0 1 1 3.288 4.023"/>
            <path fill="#9CD185" d="M22.503 184.702a2.189 2.189 0 1 1-3.08-.309 2.19 2.19 0 0 1 3.08.309"/>
            <path fill="#E6FFE7" d="M19.684 184.71a1.777 1.777 0 1 0 2.248 2.753 1.777 1.777 0 0 0-2.248-2.752m2.769 3.386a2.6 2.6 0 0 1-3.656-.368 2.6 2.6 0 0 1 .367-3.655 2.605 2.605 0 0 1 3.657.368 2.6 2.6 0 0 1-.368 3.655"/>
            <path fill="#C9F4C9" d="M28.004 164.173H9.236a1.57 1.57 0 0 1-1.57-1.57v-1.397c0-.868.703-1.57 1.57-1.57h18.768a1.57 1.57 0 0 1 1.571 1.57v1.396c0 .867-.704 1.57-1.571 1.57M28.004 156.241H9.236a1.57 1.57 0 0 1-1.57-1.57v-1.395c0-.868.703-1.57 1.57-1.57h18.768a1.57 1.57 0 0 1 1.571 1.57v1.396a1.57 1.57 0 0 1-1.571 1.57"/>
        </g>
    </g>
</svg>
