<?xml version="1.0" encoding="utf-8"?>
<!-- Generator: Adobe Illustrator 23.1.0, SVG Export Plug-In . SVG Version: 6.00 Build 0)  -->
<svg version="1.1" id="Capa_1" xmlns="http://www.w3.org/2000/svg" xmlns:xlink="http://www.w3.org/1999/xlink" x="0px" y="0px"
	 viewBox="0 0 204.18 204.18" style="enable-background:new 0 0 204.18 204.18;" xml:space="preserve">
<style type="text/css">
	.st0{fill:#FFFFFF;}
</style>
<g>
	<path class="st0" d="M74.81,31.44c0-15.14,12.33-27.38,27.44-27.38c15.19,0,27.48,12.23,27.48,27.38
		c0,15.09-12.28,27.34-27.48,27.33C87.15,58.77,74.81,46.54,74.81,31.44"/>
	<path class="st0" d="M14.46,39.33c0-13.41,10.9-24.3,24.36-24.3c13.48,0,24.41,10.88,24.41,24.3c0,13.45-10.93,24.31-24.41,24.31
		C25.36,63.64,14.46,52.77,14.46,39.33"/>
	<path class="st0" d="M141.32,39.33c0-13.41,10.92-24.31,24.4-24.31c13.45,0,24.38,10.9,24.38,24.31
		c0,13.45-10.93,24.31-24.38,24.31C152.24,63.64,141.32,52.77,141.32,39.33"/>
	<path class="st0" d="M141.32,165.84c0-13.45,10.92-24.31,24.4-24.31c13.48,0,24.38,10.87,24.38,24.31
		c0,13.43-10.9,24.31-24.38,24.31C152.24,190.15,141.32,179.27,141.32,165.84"/>
	<path class="st0" d="M14.46,165.84c0-13.45,10.9-24.31,24.36-24.31c13.48,0,24.41,10.87,24.41,24.31
		c0,13.43-10.93,24.31-24.41,24.31C25.36,190.15,14.46,179.27,14.46,165.84"/>
	<path class="st0" d="M71.79,102.57c0-16.78,13.63-30.41,30.47-30.41c16.86,0,30.51,13.63,30.51,30.41s-13.65,30.39-30.51,30.39
		C85.42,132.96,71.79,119.34,71.79,102.57"/>
	<path class="st0" d="M74.81,173.73c0-15.13,12.32-27.38,27.44-27.38c15.19,0,27.48,12.25,27.48,27.38
		c0,15.11-12.28,27.36-27.48,27.36C87.13,201.09,74.81,188.84,74.81,173.73"/>
	<path class="st0" d="M146.19,102.57c0-15.11,12.3-27.36,27.46-27.36s27.46,12.23,27.46,27.36c0,15.13-12.3,27.39-27.46,27.39
		S146.19,117.7,146.19,102.57"/>
	<path class="st0" d="M3.47,102.57c0-15.11,12.3-27.36,27.44-27.36c15.16,0,27.48,12.25,27.48,27.36
		c0,15.13-12.32,27.38-27.48,27.38C15.77,129.94,3.47,117.7,3.47,102.57"/>
</g>
</svg>
