<svg xmlns="http://www.w3.org/2000/svg" xmlns:xlink="http://www.w3.org/1999/xlink" width="876" height="843" viewBox="0 0 876 843">
    <defs>
        <path id="a" d="M0 0h710.408v45H0z"/>
    </defs>
    <g fill="none" fill-rule="evenodd">
        <path fill="#B9DBAF" d="M489.284 353.17c-66.31-48.24-21.141-156.991-73.133-183.218-12.44-6.281-28.756-6.346-47.165-1.555h-.031c-51.36 13.384-118.968 64.256-164.547 122.167-10.03 12.75-18.979 25.786-26.44 38.885-19.141 33.457-28.632 66.981-21.711 95.207.286 1.333.668 2.632 1.047 3.935 21.743 71.168 143.47 71.295 156.674 151.916 4.033 24.706-4.284 43.575-13.488 60.894-11.494 21.563-24.347 40.754-16.348 65.806 4.062 12.753 11.202 25.34 20.884 37.364 51.292 63.652 174.1 112.206 290.207 94.89 41.9-6.248 85.7-21.406 125.883-44.877 12.794-7.42 25.17-15.731 37.043-24.8 1.303-1.046 2.635-2.062 3.935-3.109a327.393 327.393 0 0 0 20.825-17.917 197.194 197.194 0 0 0 4.412-4.187 271.06 271.06 0 0 0 4.22-4.219 277.606 277.606 0 0 0 15.776-17.128 88.785 88.785 0 0 0 2.284-2.725 197.866 197.866 0 0 0 4.635-5.709 280.358 280.358 0 0 0 20.251-28.958 263.664 263.664 0 0 0 10.856-19.408 132.317 132.317 0 0 0 1.84-3.681c2.317-4.755 4.54-9.641 6.57-14.59.764-1.742 1.491-3.519 2.188-5.295 1.146-2.916 2.256-5.9 3.303-8.88a264.097 264.097 0 0 0 8.348-28.352c4.413-18.68 7.174-39.073 8.061-60.103 3.523-81-20.375-170.945-82.24-205.482-99.187-55.408-222.25 72.69-304.139 13.129z" opacity=".164"/>
        <path fill="#B9DBAF" d="M669.652 193.198c-15.375-21.787-47.687-37.338-69.275-28.212-27.364 11.565-13.867 60.837-39.292 72.177-25.429 11.339-53.784-29.396-73.017-19.017-20.481 11.057-22.184 75.544 10.065 106.05 39.872 37.713 124.992 17.497 161.856-32.33 17.206-23.255 32.16-66.793 9.663-98.668M410.4 64.905c43.319 43.56 45.784 78.507 57.97 77.051 19.955-2.385 49.518-100.425 6.584-131.744-32.277-23.545-94.979-1.693-97.854 18.454-1.373 9.604 11.49 14.311 33.3 36.24M559 138c18.78 0 34-15.22 34-34 0-18.776-15.22-34-34-34s-34 15.224-34 34c0 18.78 15.22 34 34 34M290.267 66.545C258.65-2.133 138.924-20.222 65.777 24.356 31.634 45.161-10.13 93.006 2.215 145.276c8.436 35.726 41.84 72.234 74.279 71.719 41.116-.655 49.343-70.485 87.853-71.847 38.51-1.358 53.785 65.24 83.847 61.91 32.02-3.548 67.646-84.958 42.074-140.513" opacity=".22"/>
        <g>
            <g transform="translate(192 699)">
                <mask id="b" fill="#fff">
                    <use xlink:href="#a"/>
                </mask>
            </g>
            <path fill="#D6F1D5" d="M270.581 724c-15.502 0-32-1-49.497-3a2.356 2.356 0 0 1-2.069-2.61 2.342 2.342 0 0 1 2.601-2.076c82.11 9.385 141.827-3.482 177.492-38.263 37.823-36.881 34.129-86 34.086-86.492a2.355 2.355 0 0 1 2.142-2.548c1.285-.125 2.432.85 2.542 2.149.043.514 3.909 51.852-35.493 90.274-29.037 28.315-73.258 42.564-131.804 42.566"/>
            <path fill="#DFF9FC" d="M273.537 724c-9.766 0-19.874-.314-30.33-.947a2.352 2.352 0 0 1-2.203-2.493 2.353 2.353 0 0 1 2.485-2.214c85.34 5.138 147.251-10.887 184.017-47.65 35.732-35.73 33.78-78.778 33.757-79.208a2.354 2.354 0 0 1 2.214-2.486c1.289-.048 2.405.923 2.476 2.225.103 1.842 2.077 45.604-35.134 82.813-33.204 33.202-86.032 49.958-157.282 49.96"/>
            <path fill="#D6F1D5" d="M647.466 709.472c-3.852 1.63-8 3.073-12.4 4.358a57.23 57.23 0 0 1-1.754.503c-30.407 8.464-72.195 9.562-109.476 8.15-1.066-.045-2.115-.093-3.162-.14-27.606-1.159-52.47-3.636-67.987-5.456-5.809-.674-8.704-7.477-5.104-12.102 3.946-5.078 8.705-12.714 13.888-24.189 14.734-32.638-2.035-61.167-2.035-61.167s24.082-104.297 25.648-106.9c1.566-2.617 157.982-26.162 148.449 2.697-9.52 28.86-9.099 109.123-6.484 136.29 1.77 18.499 14.921 36.51 23.126 46.136 3.304 3.857 1.957 9.86-2.709 11.82"/>
            <path fill="#003A22" d="M614 549s-94.516 111.898-147.91 105.756c0 0-.587-25.65-9.09-34.944 0 0 22.362 4.2 47.336-4.804C529.309 606.002 614 549 614 549"/>
            <path fill="#EDEDED" d="M351.184 396.058c1.812 1.577 3.123 32.608 3.123 32.608L387 412.483l-5.839 12.309L343.825 451 287 389l64.184 7.058z"/>
            <path fill="#EBAF7B" d="M386.266 402s-6.162 6.371-7.108 15.5c-.88 8.495 2.209 15.5 2.209 15.5s5.633-3.732 5.633-4.89c0-1.157-.734-26.11-.734-26.11"/>
            <path fill="#E4F7E8" d="M529.58 208.435L574.814 203 586 218.443 525 231zM439.198 210.693c-11.17 7.473-29.192 55.734-28.155 86.575.14 4.186 12.52-10.947 12.52-10.947L470 247.626s-20.845-43.596-30.802-36.933"/>
            <path fill="#FFD7B1" d="M485.637 180.185S491.757 198.45 498 199l-28.935-.507S469.772 182.252 464 171l21.637 9.185z"/>
            <path fill="#FCCBAC" d="M495.713 162.066s4.633-8.33.71-9.045c-3.922-.714-13.619 17.274-10.972 19.683 2.649 2.406 10.262-10.638 10.262-10.638"/>
            <path fill="#D09769" d="M486.194 178.69s-17.589-4.137-13.607.534c4.956 5.813 15.413 4.688 15.413 4.688l-1.806-5.222z"/>
            <path fill="#003A22" d="M494.227 155.158c-4.322 9.959-15.91 14.524-25.868 10.225-5.903-2.549-10.742-6.363-12.151-12.132-.392-1.594-1.738-4.627-2.647-8.457a16.62 16.62 0 0 1-.328-1.72 13.96 13.96 0 0 1-.188-1.626c0-.063 0-.14-.016-.203-.016-.485-.047-.954-.016-1.439.032-2.798.674-5.518 2.02-7.926.141-.281.298-.547.47-.813.016-.03.031-.047.047-.078.157-.25.329-.5.517-.735.548-.781 1.19-1.5 1.91-2.173a25.096 25.096 0 0 1 4.432-3.298c.281-.172.548-.329.83-.485.015 0 .015-.016.03-.016.267-.14.549-.28.83-.422 2.224-1.078 4.526-1.75 6.671-1.829.439-.031.862-.031 1.3-.031.329 0 .673 0 1.002.016h.204c.329.015.673.03 1.002.062 3.586.235 6.796 1.048 9.473 2.298.298.141.58.282.862.422.094.063.203.11.297.172.298.157.58.329.846.5 2.051 1.236 3.68 2.768 4.807 4.487 1.973 3.002 4.275 7.473 5.105 12.585.062.36.11.72.156 1.095.439 3.642.11 7.582-1.597 11.521"/>
            <path fill="#FFD7B1" d="M484.74 181.57c-2.574.985-8.726.324-13.322-2.47-6.49-3.942-12.228-12.93-9.883-26.739 2.345-13.81 11.636-23.74 20.771-22.204 6.523 1.12 11.017 7.791 12.312 16.57.089.63.174 1.273.241 1.922.01.236.033.477.05.73.045.598.076 1.189.086 1.802.046 2.194-.23 4.445-.422 6.768-1.734 20.72-4.127 21.44-9.832 23.621"/>
            <path fill="#AEE9AF" d="M511.49 300.411s8.63-59.251 13.278-82.154c1.06-5.227-1.586-10.491-6.426-12.807l-20.79-9.45-33.14 1.422L448 212.555 454.809 305l56.682-4.589z"/>
            <path fill="#AEE9AF" d="M468 199l12.727-.217 13.748-.24 7.525-.125s-2.553-1.46-4.997-3.252l-.108-.081-5.957-4.085-10.827 5.064-8.314-2.935L468 199z"/>
            <path fill="#82E383" d="M476.834 301l.904-.185c-2.024-17.435.182-101.612.243-102.123l-.444-.1.463-.068-.284-.524-.46.08c-.036.04-.073.23-.11.565l-.056.013.055-.008c-.85 7.615-1.923 88.463-.31 102.35M485.126 302l.874-.185c-1.963-17.492-.662-101.629-.61-102.137l-.43-.086.445-.068-.273-.524-.445.08c-.033.037-.065.228-.097.564l-.065.014.064-.01c-.71 7.59-1.035 88.347.537 102.352"/>
            <path fill="#E4F7E8" d="M526.896 219.247l-8.834 61.938.36 7.974.016.126.047 1.098v.126l.156 3.516.015.125.047 1.1v.11l.485 10.845.063 1.335v.14l.047 1.115L520.689 340 494 339.623l1.063-37.577 2.893-103.126v-.299l.078-2.386V196s.015 0 .031.016c.61.141 12.29 2.92 23.265 5.87a59.23 59.23 0 0 1 1.58.44c7.504 2.025 39.09 3.18 39.09 3.18s-34.744 10.79-35.104 13.74M447.284 289.013l.542-7.204-5.28-46.944-.108-.946-.062-.473L439 210.415l.712-.378 1.425-.741 17.203-9.017h.016l5.543-3.279L470 339l-26.355-.426 2.2-29.793.077-1.23.929-12.453.093-1.23.263-3.641z"/>
            <path fill="#FFFDFE" d="M465 197.392l7.17 8.608 8.296-6.258.616-.515.595.446 8.678 6.016 6.645-10.41-.109-.083-1.916-1.359-.982-.692-3.042-2.145s-5.262 1.759-8.583 1.876c-.279.012-.545.012-.812.024-.411.01-.811.01-1.213.01-6.388.013-10.285-1.223-10.285-1.223L465 197.392z"/>
            <path fill="#AEE9AF" d="M481.072 193.012l.077 6.988.397-.528.382.456-.077-6.928c-.265.012-.522.012-.78.012"/>
            <path fill="#BADCDB" d="M456 260.843l-1.592.157c-2.802-30.205-9.696-44.677-14.408-51.26l1.465-.74c4.903 6.913 11.733 21.654 14.535 51.843M523 202.442a51.91 51.91 0 0 0-2.394 4.641c-3.905 8.383-8.031 22.022-10.031 43.917l-1.575-.158c2.047-22.274 6.236-36.15 10.236-44.69A54.852 54.852 0 0 1 521.41 202c.536.142 1.056.284 1.591.442"/>
            <path fill="#BDEDC7" d="M465.282 198L452 205.354l8.984 20.688-4.305 4.269L460.934 244l6.066-5.711zM497.727 196l11.465 2.79-3.597 21.08 4.405 6.929L502.955 241 496 236.206z"/>
            <path fill="#FFD7B1" d="M461.227 157.983s-5.915-7.62-7.989-4.014c-2.073 3.608 9.954 17.86 13.966 18.03 3.56.15-5.977-14.016-5.977-14.016"/>
            <path fill="#D09769" d="M455.32 158.993c.038.01.08.01.119-.004a.232.232 0 0 0 .142-.288c-.183-.604-.194-1.031-.033-1.17.228-.202.86.053 1.13.207.107.06.239.02.296-.092a.236.236 0 0 0-.088-.311c-.11-.064-1.1-.608-1.615-.16-.323.283-.357.827-.104 1.666a.22.22 0 0 0 .153.152"/>
            <path fill="#82E383" d="M480 214a1 1 0 1 0 2.002-.002A1 1 0 0 0 480 214"/>
            <path fill="#003A22" d="M683.843 459.535L619.596 501 505 221.48s3.62-2.08 12.052-4.303c4.198-1.095 9.588-2.237 16.31-3.145 3.37-.485 7.068-.892 11.127-1.204 5.016-.423 10.563-.705 16.69-.783 3.4-.062 7.003-.062 10.795.016 2.711.047 5.533.125 8.446.25 3.23.141 6.394.391 9.482.767 72.99 8.465 108.828 75.904 108.828 75.904 43.876 86.841-14.887 170.553-14.887 170.553"/>
            <path fill="#D9FFD6" d="M578 239.329L587.025 224l20.029 6.485-4.542 14.741 12.945 5.59 10.408-11.797 16.092 11.41-8.364 12.63 7.914 7.995 8.003-7.475L663 279.537 644.081 298l-45.583-13.802z"/>
            <path fill="#AAEDAC" d="M590 214.035L580.891 250l-36.555-1.944-24.37-20.491-2.966-9.423c4.207-1.097 9.608-2.242 16.345-3.15l4.234 15.52 7.066-3.397-.15-13.331c5.024-.423 10.583-.706 16.723-.784l-.608 19.732 5.103 7.055 6.324-26.771c2.714.047 5.542.125 8.462.25 3.236.142 6.406.392 9.501.769"/>
            <path fill="#FFD7B1" d="M578.434 205.031c10.037.546 18.96 11.083 9.643 9.872-9.124-1.186-26.077-1.447-26.077-1.447s4.81-9.055 16.434-8.425"/>
            <path fill="#EDEDED" d="M719.391 356.12C715.874 359.48 709 367.388 709 367.388l30.958 41.023c11.24 8.538 27.537 4.734 33.766-7.88L794 359.452 763.793 353l-8.461 30.237-35.94-27.118z"/>
            <path fill="#D9FFD6" d="M663.125 301.325l12.523-13.132 12.522 14.48 13.404-4.222.717-18.451 19.647 1.977-2.096 18.824 9.861 5.683 14.074-11.415 11.139 13.514-12.476 13.451 1.742 9.285L760 337.205l-7.617 18.418-13.427-7.665-4.043 6.75c1.303 2.359 8.218 13.762 8.218 13.762l-14.594 9.077-7.136-15.534-6.89 1.99V379l-17.388-.475.225-15.257-8.656-1.876-8.96 11.346-13.462-11.782 10.943-12.424-2.183-5.3-13.761 2.534L656 320.76l19.35-2.949-2.05-3.342-10.175-13.144z"/>
            <path fill="#FFF" d="M709 307.564c-12.923 0-23.436 10.513-23.436 23.435 0 12.923 10.513 23.437 23.436 23.437s23.436-10.514 23.436-23.437c0-12.922-10.513-23.435-23.436-23.435M709 356c-13.785 0-25-11.215-25-25s11.215-25 25-25 25 11.215 25 25-11.215 25-25 25"/>
            <path fill="#005031" d="M719 330.5c0 5.8-4.7 10.5-10.5 10.5s-10.5-4.7-10.5-10.5c0-5.798 4.7-10.5 10.5-10.5s10.5 4.702 10.5 10.5"/>
            <path fill="#FFF" d="M750 567.708l9.68-152.798s-.4-31.3 1.767-54.008A36.79 36.79 0 0 1 782.627 331l.086 2.925 5.15 103.718L794 568l-44-.292z"/>
            <path fill="#555" d="M480 233a1 1 0 1 0 1.999.001A1 1 0 0 0 480 233M480 258a1 1 0 1 0 2 0 1 1 0 0 0-2 0"/>
            <path fill="#EBEBEB" d="M293.47 514l48.53 5.186-.786 81.814-55.214-.717 1.111-61.012z"/>
            <path fill="#6AD73F" d="M634.987 713.063c-35.162-32.308-40.985-74.745-39.677-104.658 1.388-31.387 10.603-55.84 11.667-58.569l.268-.714-2.917-1.122-.286.732c-1.066 2.726-10.453 27.562-11.867 59.496-1.35 30.31 4.49 73.384 39.987 106.477l.317.295.42-.11c.604-.16 1.192-.333 1.78-.506l1.321-.392-1.013-.93zM524.132 723c-1.077-.045-2.138-.094-3.199-.14 19.32-94.104-15.455-105.697-15.804-105.804-.84-.25-1.314-1.125-1.06-1.935a1.596 1.596 0 0 1 1.963-1.06c1.552.45 37.847 12.073 18.1 108.939"/>
            <path fill="#AAEDAC" d="M667.39 322.691l8.543 19.853-5.468 1.172-1.57.344-22.933 4.94L621 303.354l14.264-11.193-4.168-6.424-1.014-1.548-3.866-3.189h28.606l-1.03 15.007 6.736 4.127 14.77-5.315L684 315.516z"/>
            <path fill="#6AD73F" d="M671.563 300.903l-12.823 4.393a.812.812 0 0 1-.773-.124l-10.201-8.367a.755.755 0 0 1-.285-.623l.537-11.607-16.882.296-3.33.062c-.443-.015-.806-.327-.806-.763 0-.42.332-.779.774-.795l2.353-.046 18.697-.328c.203-.015.442.094.584.234a.75.75 0 0 1 .22.592l-.552 12.028 9.57 7.837 13.106-4.503a.776.776 0 0 1 .98.436l5.21 12.62a.743.743 0 0 1-.015.608.783.783 0 0 1-.442.42l-16.486 6.077 9.364 23.307-1.564.343-9.57-23.806a.746.746 0 0 1 .017-.608.71.71 0 0 1 .44-.405l16.488-6.092-4.611-11.186z"/>
            <path fill="#272727" d="M656 314c0 5.522-4.476 10-10 10-5.522 0-10-4.478-10-10 0-5.524 4.478-10 10-10 5.524 0 10 4.476 10 10"/>
            <path fill="#002617" d="M281.02 718.984s12.145 3.423 21.289 5.197c2.135.415 3.691 2.31 3.691 4.537v.02l-22.5.262c-4.431 0-10.894-.282-14.978-2.347l.119 2.084H261l.142-6.838c.057-2.723 2.227-4.899 4.887-4.899l14.991 1.984z"/>
            <path fill="#003A22" d="M270.9 502l2.402 109.04S259.718 706.76 259 720.089L291.036 722l14.013-108.402L307 513.189 270.9 502z"/>
            <path fill="#002617" d="M269.22 721l-1.22-.18 15.773-108.97-.483-91.842 1.232-.008.478 91.937zM348.471 721.253s6.243 1.635 13.802 2.963c2.151.377 3.727 2.285 3.727 4.521l-22.5.263c-4.431 0-10.894-.283-14.978-2.348l.119 2.085H321l.142-6.84c.057-2.721 2.227-4.897 4.885-4.897l22.444 4.253z"/>
            <path fill="#003A22" d="M342.755 492L352 607.36s-1.824 99.844-1.313 114.594L318.732 723l1.995-109.322L309 513.366 342.755 492z"/>
            <path fill="#002617" d="M329.543 723l-1.298-.036 3.46-111.683L321 515.135l1.29-.135L333 611.232z"/>
            <path fill="#AAEDAC" d="M343.986 496.853c-.542 14.062-16.871 24.857-36.47 24.11-19.598-.747-35.046-12.753-34.502-26.818.544-14.062 16.871-24.856 36.47-24.108 19.598.746 35.046 12.753 34.502 26.816"/>
            <path fill="#AEE9AF" d="M283.558 487.216s-4.59-40.905-9.857-68.754c-2.839-15.012 2.965-29.891 17.012-36.246l2.69-1.216 35.757.3L350 395.607 342.873 492l-59.315-4.784z"/>
            <path fill="#312C30" d="M301 485h32l-.026 15H301z"/>
            <path fill="#FFD7B1" d="M305.346 346.466s4.276 27.233-11.346 34.02l34 .514s-8.962-13.146-1.873-25.928c0 0-15.863-11.495-20.781-8.606"/>
            <path fill="#D09769" d="M324 359.507s-11.232-8.936-8.6-4.042c3.274 6.092 7.917 8.535 7.917 8.535l.683-4.493z"/>
            <path fill="#EDEDED" d="M351.148 396.993c.155.46-.158 1.938-.158 1.938l-5.673 70.012.158 2.723.073 1.251.702 12.248.072 1.362L353 603h-19.621s-.38-192.555-4.378-221.881c-.19-1.393 20.1 9.803 22.147 15.874"/>
            <path fill="#003A22" d="M330.992 329.5c-.41 10.62-9.315 18.896-19.9 18.485-6.26-.237-12.011-2.007-15.327-6.793-.907-1.308-3.205-3.603-5.392-6.78-3.465-5.037-4.547-11.307-1.888-16.817.05-.111.113-.224.162-.336.26-.524.52-1.046.82-1.57 1.056-1.946 2.31-3.815 3.75-5.349l.05-.05c.035-.032.09-.087.164-.154.324-.329.651-.654.992-.941.41-.349.832-.674 1.267-.96.05-.038.1-.063.15-.088.024-.012.05-.037.062-.05a10.13 10.13 0 0 1 1.503-.76 59.997 59.997 0 0 1 4.372-1.57c.373-.125.72-.236 1.067-.336 3.441-1.024 6.05-1.385 8-1.423.36-.01.683-.01.994 0 3.367.138 4.41 1.31 4.41 1.31s.82.735 2.074 1.995c.324.323.659.672 1.03 1.058 1.926 2.007 4.46 4.875 6.66 8.078 2.832 4.113 5.142 8.813 4.98 13.05"/>
            <path fill="#FFD7B1" d="M333.759 356.116c-1.735 2.343-5.577 4.787-10.981 3.553-7.238-1.664-18.269-7.723-21.021-21.379a35.353 35.353 0 0 1-.57-3.842 29.6 29.6 0 0 1-.16-2.292c-.423-11.098 4.275-20.358 11.798-21.933 6.346-1.31 12.803 3.263 17.092 10.947.296.555.606 1.122.892 1.702.1.213.211.428.309.654.249.542.497 1.07.72 1.638a42.144 42.144 0 0 1 2.008 6.437c3.742 16.591 1.871 21.856-.087 24.515"/>
            <path fill="#FFD7B1" d="M302.797 342.775s-7.815-5.272-8.752-1.283c-.939 3.99 13.022 14.687 15.526 12.113 2.505-2.575-6.774-10.83-6.774-10.83"/>
            <path fill="#003A22" d="M326.49 316.454l-.326-.036a47.889 47.889 0 0 0-5.692-.157c-.339 0-.702.024-1.055.036-2.236.109-4.774.398-7.286 1.002-.326.072-.652.157-.98.254-2.423.675-4.773 1.676-6.72 3.16a7.106 7.106 0 0 0-.829.689 11.658 11.658 0 0 0-3.04 4.09c-1.094 2.447-3.907-4.453-5.779-9.69a142.49 142.49 0 0 1-1.068-3.1c-.44-1.327-.715-2.196-.715-2.196l.049-.047c.126-.121.54-.483 1.156-.99.351-.278.79-.616 1.295-.977l.15-.11a.273.273 0 0 0 .063-.048c1.306-.916 2.977-1.966 4.849-2.774a43.8 43.8 0 0 1 1.406-.578c.39-.158.78-.315 1.157-.448 2.977-1.109 5.665-1.785 8.278-2.147.364-.06.728-.109 1.093-.145 2.223-.254 4.397-.29 6.632-.192.34.01.692.024 1.03.047 1.044.06 2.112.145 3.19.242 1.998.181 3.62.458 4.21.832 3.78 2.473-1.068 13.283-1.068 13.283"/>
            <path fill="#AEE9AF" d="M303.122 373l13.522 1.896 7.282-.95 5.074 6.23-37 .824s9.91-5.044 11.122-8"/>
            <path fill="#FFF" d="M329 380.875l-2.837 7.827-10.062-6.87-9.225 7.168L299 377.627l1.271-1.113.31-.33.326-.345.31-.33 2.025-2.509s7.355 1.71 12.208 1.851c3.814.094 9.097-1.282 9.097-1.282l2.872 4.529.62 1.004.961 1.773zM264 600.32l10.53-139.36-3.5-52.32c-1.934-16.446 11.89-25.55 20.517-29.417 1.664-.746 6.533-2.223 6.533-2.223l-.7 3.045 4.407 72.022a650.46 650.46 0 0 1 .002 79.385L297.475 602 264 600.32z"/>
            <path fill="#D09769" d="M298.797 346a.26.26 0 0 1-.192-.081c-.566-.63-.732-1.11-.51-1.466.355-.568 1.556-.447 1.69-.433.135.016.23.126.213.246-.018.12-.137.202-.275.19-.323-.037-1.047-.034-1.2.212-.108.172.061.527.464.976a.204.204 0 0 1-.037.308.26.26 0 0 1-.153.048"/>
            <path fill="#D0CDCE" d="M313 500h9v-15h-9z"/>
            <path fill="#FFF" d="M650.43 433.935a56.14 56.14 0 0 1-.142 1.986c-1.894 20.717-19.932 87.84-34.308 108.244-14.875 21.107-109.61 71.923-126.052 76.613-6.404 1.83-16.55 4.628-27.731 5.738-17.522 1.752-37.596-.64-49.779-17.464-1.409-1.94-3.116-4.91-5.01-8.678-1.723-3.455-3.57-7.583-5.465-12.18a181.504 181.504 0 0 1-1.316-3.3c-5.919-15.087-11.79-34.506-14.045-52.456-2.02-16.104-3.007-49.705-4.588-103.475-.032-.876-.047-1.751-.079-2.627-.047-1.782-.11-3.58-.156-5.41-.047-2.017-.11-4.065-.173-6.129-.156-4.94-.313-10.022-.485-15.26a185.396 185.396 0 0 1 4.948-49.142c.266-1.126.548-2.236.83-3.33.282-1.048.564-2.096.83-3.128.094-.297.172-.61.25-.906 10.695-38.088 29.94-60.76 29.94-60.76 45.41-64.887 104.913-60.196 104.913-60.196 37.58 3.127 61.068 13.29 99.432 59.414 38.363 46.125 28.968 134.465 28.185 152.446"/>
            <path fill="#D6F1D5" d="M418.276 476.818c-10.531 16.285-3.359 22.005 2.684 26.96 2.291 1.875 11.1 2.73 7.7 3.024-28.67 2.471-14.862 31.588 4.429 65.658.689 1.205 1.486 3.93 1.47 5.666-.015.984 1.83 1.031 1.61 2.11-16.559-.344-27.734 5.487-27.922 5.58a1.571 1.571 0 0 1-1.82-.25c-.158-.391-.315-.798-.472-1.203-6.042-15.176-10.239-24.406-14.36-53.125-2.306-16.06-3.014-49.685-4.6-103.433-.03-.874-.046-1.75-.078-2.626-.047-1.782-.11-3.58-.157-5.408-.047-2.016-.11-4.063-.172-6.125-.157-4.94-.314-10.02-.487-15.256a184.838 184.838 0 0 1 4.96-49.122c.267-1.125.55-2.235.832-3.329.282-1.047.565-2.094.832-3.126 3.217-.484 5.665-.405 5.665-.405s16.92-17.334 45.186 10.064c14.722 14.27 9.417 54.47 2.747 69.456-6.262 14.083-16.888 37.635-28.047 54.89"/>
            <path fill="#6AD73F" d="M528 339a7 7 0 1 1-14 0 7 7 0 0 1 14 0"/>
            <path fill="#F1F5EF" d="M525 339a4 4 0 1 1-8 0 4 4 0 0 1 8 0"/>
            <path fill="#6AD73F" d="M584 665a6 6 0 1 1-12-.001 6 6 0 0 1 12 .002"/>
            <path fill="#D9EAD4" d="M581 665c0 1.658-1.342 3-3 3a3 3 0 1 1 0-6 3 3 0 0 1 3 3"/>
            <path fill="#6AD73F" d="M544 706a6 6 0 1 1-12 0 6 6 0 0 1 12 0"/>
            <path fill="#D9EAD4" d="M541 706a3 3 0 1 1-6 0 3 3 0 1 1 6 0"/>
            <path fill="#6AD73F" d="M626 658a6 6 0 1 1-12.001-.001A6 6 0 0 1 626 658"/>
            <path fill="#D9EAD4" d="M623 658a3 3 0 1 1-6 0 3 3 0 0 1 6 0"/>
            <path fill="#6AD73F" d="M586 354.5a4.5 4.5 0 1 1-9 0 4.5 4.5 0 0 1 9 0"/>
            <path fill="#F1F5EF" d="M584 354.5a2.5 2.5 0 1 1-5 0 2.5 2.5 0 0 1 5 0"/>
            <path fill="#6AD73F" d="M559 343a5 5 0 1 1-10 0 5 5 0 0 1 10 0"/>
            <path fill="#F1F5EF" d="M557 343a3 3 0 1 1-6 0 3 3 0 0 1 6 0"/>
            <path fill="#6AD73F" d="M414 328a5 5 0 1 1-10 0 5 5 0 0 1 10 0"/>
            <path fill="#F1F5EF" d="M412 328a3 3 0 1 1-6 0 3 3 0 0 1 6 0"/>
            <path fill="#6AD73F" d="M451 331a7 7 0 1 1-14.001-.001A7 7 0 0 1 451 331"/>
            <path fill="#F1F5EF" d="M448 331a4 4 0 1 1-8 0 4 4 0 0 1 8 0"/>
            <path fill="#003A22" d="M635.668 291s-27.43 13.048-35.267 49.099c-7.837 36.049 18.138 89.206 54.72 93.901 0 0 7.51-41.753 6.836-52.148C657.777 317.41 635.668 291 635.668 291"/>
            <path fill="#AAEDAC" d="M628.405 393.07l17.067 13.89-16.83 15.04s-9.988-7.457-19.23-25.454a28.234 28.234 0 0 1-.732-1.416c-.97-1.966-1.94-4.058-2.88-6.26-.174-.394-.35-.85-.54-1.354-.891-2.375-1.942-5.679-2.689-7.756-3.101-8.652-4.438-16.408-4.565-23.424v-.283a62.861 62.861 0 0 1 .255-6.56c.063-.535.11-1.07.175-1.605 1.558-12.868 6.999-23.063 11.976-31.888l17.293 10.509-8.259 17.111 8.68 10.191 20.788-3.302 5.086 26.86-21.445 2.329-4.15 13.371z"/>
            <path fill="#6AD73F" d="M600.579 347c-.812 0-1.608.032-2.404.11-.064.538-.111 1.075-.175 1.613a23.07 23.07 0 0 1 2.579-.142c13.132 0 23.83 10.606 23.83 23.662 0 10.306-6.686 19.11-15.983 22.334.24.49.476.965.733 1.423 9.805-3.493 16.841-12.835 16.841-23.757C626 358.317 614.603 347 600.579 347"/>
            <path fill="#AAEDAC" d="M713 388c-.169 1.216-.556 3.159-1.1 5.575-.107.537-.231 1.106-.37 1.69-2.994 13.14-9.487 36.737-12.092 37.969-.729.331-21.313 7.06-30.921 10.187-.527.173-1.023.331-1.473.49-2.094.68-3.379 1.089-3.379 1.089L653 415.402l25.065-11.119 5.842 14.705 8.263-6.87 2.123-20.264L713 388z"/>
            <path fill="#6AD73F" d="M712 392c-.11.541-.237 1.114-.38 1.703l-11.374 2.07-1.24 20.137a.802.802 0 0 1-.238.51l-14.745 14.725c-.191.175-.462.27-.716.207a.753.753 0 0 1-.587-.478l-7.873-19.405-16.048 6.813 8.684 23.958 1.336 3.692c.142.415-.064.877-.477 1.02a.821.821 0 0 1-.27.048.784.784 0 0 1-.75-.525l-1.35-3.741-8.924-24.611a.796.796 0 0 1 .43-1.003l17.496-7.434c.191-.08.412-.08.619 0 .19.08.35.239.431.446l7.712 19.039 13.696-13.659 1.257-20.456a.78.78 0 0 1 .65-.732L712 392z"/>
            <path fill="#FFF" d="M647.694 436.524s38.559-17.714 54.822-2.07c16.263 15.644 9.443 38.586-4.197 54.752C684.68 505.371 646.383 545 627.497 545c-18.886 0-18.072-4.73-14.4-16.724 3.673-11.994 34.597-91.752 34.597-91.752"/>
            <path fill="#6AD73F" d="M688.746 483a1.536 1.536 0 0 1-1.387-2.185c6.282-13.526 7.295-22.988 3.011-28.121-6.474-7.758-23.277-3.403-23.445-3.359a1.536 1.536 0 0 1-.784-2.971c.766-.205 18.868-4.882 26.58 4.357 5.113 6.128 4.243 16.69-2.585 31.39a1.53 1.53 0 0 1-1.39.889M649.59 521c-.57 0-1.12-.298-1.405-.823-.412-.754-.113-1.689.662-2.088 13.799-7.092 24.23-19.397 24.334-19.522a1.619 1.619 0 0 1 2.236-.218c.68.54.78 1.512.224 2.174-.44.523-10.947 12.916-25.31 20.298-.237.122-.49.179-.74.179M618.628 512.557c.015.424-.125.83-.39 1.13C614.832 517.567 544.336 597 494.205 597c-7.387 0-14.321-1.723-20.537-5.652-13.696-8.662-26.627-11.48-37.325-11.7-16.476-.345-27.595 5.498-27.783 5.59-.172.096-.656.55-1.25 1.16a173.583 173.583 0 0 1-1.311-3.305c.562-.313.968-.532 1.078-.595.187-.11 12.072-6.39 29.61-5.951 11.12.252 24.519 3.21 38.652 12.153 44.65 28.268 133.277-68.97 140.133-76.613-.219-6.468-.344-58.211 35.435-79.087 1.11.266 3.327.61 4.092.877-36.995 20.939-36.42 78.085-36.372 78.68"/>
            <path fill="#005031" d="M617 370.808c0 7.203-4.957 13.283-11.754 15.192-.891-2.324-1.94-5.557-2.687-7.588-3.097-8.466-4.432-16.055-4.559-22.92v-.277c.874-.138 1.78-.215 2.685-.215 9.023 0 16.315 7.08 16.315 15.808"/>
            <path fill="#DAF4E5" d="M329.159 380.033s2.733.221 4.02 1.639c3.045 3.347 10.821 16.324 10.821 16.324l-9.923 13.149 8.172 3.532-6.399 27.28L332.183 461 329 380.095c-.003-.088.104-.128.159-.062"/>
            <path fill="#BADCDB" d="M298.832 402l-9.237 15.109 10.107 13.162L276 417.659l25.962 44.335c.098.13-.016-1.992-.077-2.84L298.832 402z"/>
            <path fill="#FFD7B1" d="M723.084 361.695c1.858 12.996 17.09 19.586 20.554 18.098 3.465-1.488 8.362-8.273 8.362-8.273s-10.228-9.48-11.725-10.399c-1.493-.912.61 5.487 2.241 6.702 1.632 1.214-21.063-17.532-19.432-6.128"/>
            <path fill="#AEE9AF" d="M315.17 374.013L315 382l1.022-1.009.978.85-.304-7.841z"/>
            <path fill="#006940" d="M651.716 733L641 732.523 713.156 508l9.844 3.189z"/>
            <path fill="#006940" d="M659 682.316L660.43 672l41.57 5.685L700.57 688zM672 641.687L674.118 631 713 639.313 710.88 650zM685 604.686L687.118 594 726 602.312 723.88 613zM695 566.687L697.118 556 736 564.313 733.882 575z"/>
            <path fill="#006940" d="M692.96 728H682l56.135-173L745 567.622z"/>
            <path fill="#E2F6F7" d="M810 729.644L799.399 731 693 466.894l9.577-3.894z"/>
            <path fill="#E2F6F7" d="M724.95 528l-3.95-9.926L760.049 502l3.951 9.925zM740.951 568L737 558.074 776.049 542l3.951 9.925zM757.95 617l-3.95-9.926L793.047 591l3.953 9.926zM777.95 661l-3.95-9.925L813.049 635l3.951 9.926z"/>
            <path fill="#E2F6F7" d="M852 720.808L841.338 722 735 457.896l9.572-3.896z"/>
            <path fill="#E2F6F7" d="M793.95 701l-3.95-9.926L829.047 675l3.953 9.926z"/>
            <path fill="#CDCDCD" d="M819 469.522V568l-43.926-.06L774 487.056 789.985 453z"/>
            <path fill="#0A0A0A" d="M826.98 669.984s-12.144 3.423-21.29 5.197c-2.134.415-3.69 2.31-3.69 4.537v.02l22.5.262c4.432 0 10.895-.282 14.98-2.347l-.12 2.084H847l-.14-6.838c-.058-2.723-2.23-4.899-4.888-4.899l-14.991 1.984z"/>
            <path fill="#003A22" d="M837.251 453l-2.372 109.04S848.291 657.757 849 671.086L817.37 673l-13.836-108.403L800 463.678 837.251 453z"/>
            <path fill="#000" d="M839.78 672l1.22-.18-15.774-108.97.482-91.842-1.23-.008-.478 91.937z"/>
            <path fill="#002617" d="M761.003 596.05s-6.125 2.137-13.589 4.064c-2.122.548-3.56 2.612-3.402 4.886l22.513-1.443c4.43-.338 10.87-1.117 14.806-3.53l.03 2.132 7.639-.58-.63-6.952c-.25-2.767-2.576-4.817-5.233-4.613l-22.134 6.035z"/>
            <path fill="#003A22" d="M775.816 441L748 486.737S760.947 582.191 760.434 597l29.86-.201-9.646-102.995L800 469.369v-5.631L775.816 441z"/>
            <path fill="#002617" d="M769.685 597l1.571-.011-5.952-106.177L791 460.683l-1.566-.683L763 490.157z"/>
            <path fill="#003A22" d="M774.033 447.153c.537 14.131 14.508 18.551 24.602 17.759 19.369-1.52 36.892-5.518 36.353-19.649-.537-14.13-16.712-24.978-36.124-24.226-19.413.751-25.37 11.984-24.831 26.116"/>
            <path fill="#AEE9AF" d="M824.788 438.32s-.143-59.624 5.088-83.998c1.285-5.995-7.749-18.027-13.377-20.577l-1.53-1.565-35.447-.18-.849.691c-8.286 7.452-6.68 25.59-6.287 41.032L773.909 443l50.879-4.68z"/>
            <path fill="#FFD7B1" d="M802.654 298.466s-4.276 27.233 11.346 34.02L780 333s8.962-13.146 1.873-25.928c0 0 15.863-11.495 20.781-8.606"/>
            <path fill="#D09769" d="M785 311.508s11.232-8.937 8.6-4.043c-3.274 6.092-7.915 8.535-7.915 8.535l-.685-4.492z"/>
            <path fill="#003A22" d="M780.045 283.972c.413 10.62 7.164 17.421 17.782 17.01 6.282-.236 12.052-2.005 15.38-6.791.91-1.31 3.214-3.603 5.41-6.78 3.475-5.037 4.56-11.306 1.894-16.816-.052-.112-.114-.225-.163-.336-.262-.523-.523-1.047-.822-1.57-1.06-1.945-2.32-3.814-3.763-5.348 0 0-.014-.012-.052-.05a5.747 5.747 0 0 0-.164-.155 15.165 15.165 0 0 0-.994-.942 13.68 13.68 0 0 0-1.27-.96c-.052-.036-.102-.06-.15-.087-.027-.011-.05-.036-.063-.049-.488-.3-.985-.548-1.508-.76a60.86 60.86 0 0 0-4.387-1.57 26.52 26.52 0 0 0-1.072-.338c-3.453-1.022-6.07-1.383-8.027-1.42a13.24 13.24 0 0 0-.997 0c-3.377.137-4.425 1.308-4.425 1.308s-.82.736-2.08 1.994c-.325.325.37 2.324-.004 2.712-1.93 2.005-5.505 3.221-7.71 6.424-2.843 4.114-2.977 10.286-2.815 14.524"/>
            <path fill="#FFD7B1" d="M807.974 284.178a28.255 28.255 0 0 1-.16 2.29 32.968 32.968 0 0 1-.58 3.837c-2.784 13.643-13.954 19.706-21.269 21.364-5.475 1.232-9.36-1.2-11.124-3.553-.738-.995-1.369-2.179-1.65-4.153h-.016c-.11-.79-.189-1.705-.173-2.779 0-.363.016-.758.031-1.168.032-.774.095-1.642.205-2.59.315-3.126 1.021-7.184 2.25-12.569.533-2.258 2.092-7.026 3.838-11.495 3.318-8.463 10.289-12.427 16.707-11.116 7.614 1.579 12.365 10.832 11.94 21.932"/>
            <path fill="#FFD7B1" d="M803.202 293.776s7.814-5.273 8.753-1.284c.938 3.99-13.02 14.687-15.526 12.113-2.505-2.574 6.773-10.83 6.773-10.83"/>
            <path fill="#003A22" d="M782.51 268.454l.326-.036c.805-.073 2.94-.242 5.69-.156.34 0 .706.023 1.055.035 2.237.109 4.775.398 7.286 1.001.328.073.654.158.98.255 2.424.674 4.774 1.676 6.721 3.16.29.206.564.434.829.689a11.678 11.678 0 0 1 3.04 4.09c1.092 2.447 3.905-4.454 5.778-9.69a142.5 142.5 0 0 0 1.068-3.1c.44-1.327.717-2.195.717-2.195s-.014-.012-.05-.049c-.128-.12-.54-.482-1.157-.99a38.466 38.466 0 0 0-1.293-.976c-.05-.037-.102-.073-.151-.11a.273.273 0 0 1-.063-.048c-1.306-.917-2.977-1.967-4.849-2.775a43.862 43.862 0 0 0-1.408-.578c-.39-.157-.778-.314-1.155-.447-2.977-1.11-5.666-1.786-8.278-2.147a16.9 16.9 0 0 0-1.093-.145c-2.223-.253-4.397-.29-6.632-.193-.338.012-.691.025-1.03.049-1.043.059-2.11.144-3.191.24-1.996.182-3.617.459-4.208.832-3.78 2.474 1.068 13.284 1.068 13.284"/>
            <path fill="#A29FA1" d="M805.723 324l-13.172 2.741-7.611-2-4.94 7.564 37 .695s-10.076-6.085-11.277-9"/>
            <path fill="#FFF" d="M779 333.275l3.816 4.15 10.308-4.794L803.268 338l6.732-9.401-1.164-1.24-3.65-4.359s-6.605 2.572-11.413 2.708c-3.777.1-8.904-1.03-8.904-1.03l-2.967 4.938-.553.918-2.349 2.741zM851 566.248l-16.928-153.53s.398-31.228-1.765-53.883A36.712 36.712 0 0 0 811.137 329l-.085 2.919L808 440.085 810.675 568 851 566.248z"/>
            <path fill="#D09769" d="M808.203 297a.25.25 0 0 0 .19-.082c.567-.629.735-1.108.511-1.464-.355-.568-1.553-.449-1.69-.433-.134.015-.228.125-.212.245.018.12.139.202.275.19.324-.037 1.048-.034 1.201.212.108.172-.062.528-.465.975a.205.205 0 0 0 .037.309c.045.032.099.048.153.048"/>
            <path fill="#FFD7B1" d="M777 283s-2.986 5.667-6.411 6.756c-2.803.891 5.31 5.244 5.31 5.244L777 283z"/>
            <path fill="#BADCDB" d="M772.528 338.188L766 358.335l4.055 6.859-3.852 6.663 5.599 37.572c.123.827 1.39.725 1.37-.11l-.644-28.078L779 332l-6.472 6.188zM809.876 327.938l2.75 7.262-3.333 11.49-2.513 5.352L819 366.877 807.388 418 804 334.303l3.83-8.303z"/>
            <path fill="#AEE9AF" d="M792.388 325.013L792 333l1-.584 1 .488-.233-7.904z"/>
            <path fill="#312C30" d="M774 430.011L808 427l-.368 13.009L774.287 443z"/>
            <path fill="#BDBDBD" d="M783 428.817L784.068 442l8.932-.89-1.016-13.11z"/>
            <path fill="#FFD7B1" d="M442 256.256c-2.744-3.242-9.575-.03-16.433 7.589-2.675 2.975-12.276 25.098-1.74 15.955 1.428-1.237 5.946-7.084 8.108-9.274 3.17-3.211 10.065-14.27 10.065-14.27"/>
            <path fill="#6AD73F" d="M704 443a6 6 0 1 1-12.001 0A6 6 0 0 1 704 443"/>
            <path fill="#F1F5EF" d="M701 443a3 3 0 1 1-6.001 0 3 3 0 0 1 6.001 0"/>
            <path fill="#6AD73F" d="M639 534a6 6 0 1 1-12 0 6 6 0 0 1 12 0"/>
            <path fill="#D9EAD4" d="M636 534c0 1.658-1.342 3-3 3a3 3 0 1 1 0-6 3 3 0 0 1 3 3"/>
            <path fill="#FFF" d="M779.856 361.998l-10.06-.476c-1.038-.05-1.842-.944-1.794-1.997l.171-3.706a1.895 1.895 0 0 1 1.97-1.817l10.06.476a1.9 1.9 0 0 1 1.795 1.995l-.172 3.708a1.895 1.895 0 0 1-1.97 1.817"/>
            <path fill="#373737" d="M780.846 361L769 360.438l.154-2.438 11.846.562z"/>
            <path fill="#FFF" d="M504.704 220.998l-10.78-.477c-1.112-.05-1.973-.942-1.922-1.995l.184-3.707c.052-1.052.997-1.866 2.112-1.817l10.777.477c1.115.05 1.975.942 1.923 1.995l-.184 3.707c-.052 1.053-.996 1.866-2.11 1.817"/>
            <path fill="#00AF32" d="M505.834 220L493 219.439l.166-2.439 12.834.563z"/>
            <g fill="#DAE252">
                <path d="M267.487 239.538c5.82 11.824 1.108 26.08-10.525 31.839-11.634 5.76-25.783.845-31.606-10.979-5.82-11.824-1.108-26.078 10.526-31.84 11.633-5.76 25.784-.844 31.605 10.98"/>
                <path d="M236.764 270.968c16.502 8.083 14.338 16.971 14.338 16.971l23.629-11.699s-8.783-6.584-6.066-20.954c1.419-7.501-38.752 12.326-31.9 15.682"/>
            </g>
            <path fill="#AAEDAC" d="M278.527 289.716l-19.647 9.03c-1.307.6-2.89.1-3.536-1.118l-2.344-4.42L277.384 282l2.342 4.418c.646 1.218.11 2.696-1.2 3.298"/>
            <path fill="#FFF" d="M278 283.06L254.4 295l-3.4-7.06L274.598 276z"/>
            <path fill="#F4F4F4" d="M228.863 257.587c-.93-2.62-2.067-6.623-1.832-10.065.07-1.017.73-2.195 1.555-2.42 2.14-.624 3.408 1.74 3.526 3.815.118 2.04.525 4.604 1.603 7.288.681 1.699.098 3.41-1.29 3.698l-.27.056c-1.28.265-2.73-.787-3.292-2.372"/>
            <path fill="#E0E774" d="M252.196 222.817c-.281.14-.602.207-.926.175-.852-.08-1.408-.806-1.24-1.62l1.853-9.037c.165-.813.994-1.409 1.846-1.328.853.082 1.408.807 1.241 1.622l-1.854 9.035c-.104.506-.46.925-.92 1.153M263.355 228.83c-.738.316-1.62.185-2.078-.343-.51-.592-.295-1.454.483-1.929l8.63-5.258c.776-.471 1.823-.378 2.333.214.51.59.295 1.453-.483 1.927l-8.63 5.258a2.156 2.156 0 0 1-.255.131M217.017 252.784a1.895 1.895 0 0 1-.257.1l-9.727 3.03c-.877.274-1.765-.13-1.984-.903-.219-.775.316-1.627 1.19-1.895l9.728-3.03c.878-.275 1.766.132 1.983.904.198.695-.212 1.45-.933 1.794M233.08 225.829c-.755.359-1.638.136-1.987-.507l-3.95-7.256c-.355-.653-.026-1.495.74-1.88.732-.377 1.67-.165 2.025.49l3.948 7.256c.357.653.026 1.495-.737 1.88-.012.005-.026.01-.038.017M220.038 238.82c-.414.197-.9.242-1.337.088l-8.803-3.11c-.794-.28-1.123-1.113-.736-1.86.387-.746 1.343-1.126 2.136-.846l8.804 3.11c.792.28 1.123 1.113.736 1.86a1.733 1.733 0 0 1-.8.757"/>
            <path fill="#FFD7B1" d="M386.317 413s-7.336 5.193-8.217 14.323c-.82 8.495 3.66 16.677 3.66 16.677s5.24-3.733 5.24-4.891c0-1.156-.683-26.109-.683-26.109"/>
            <path fill="#FFF" d="M298.254 377c.7.603.61 13.281 6.612 25.45 9.557 19.378 26.592 41.44 26.592 41.44l45.738-17.789L381 443.89s-33.055 16.974-42.774 22.92c-12.657 7.74-20.62 4.388-30.075-7.024L274 414.823 298.254 377z"/>
            <path fill="#020202" d="M760.046 400l13.75 12.427L774 421l-14-14.65z"/>
            <path fill="#FFF" d="M745.918 366.223c-3.52 3.39-8.918 12.445-8.918 12.445l32.915 34.706c11.247 8.609 27.561 4.773 33.792-7.946L824 364.007 811.23 331l-25.928 56.99-39.384-21.767z"/>
        </g>
    </g>
</svg>
