<?xml version="1.0" encoding="UTF-8"?>
<svg width="25px" height="19px" viewBox="0 0 25 19" version="1.1" xmlns="http://www.w3.org/2000/svg" xmlns:xlink="http://www.w3.org/1999/xlink">
    <!-- Generator: Sketch 60 (88103) - https://sketch.com -->
    <title>logout</title>
    <desc>Created with Sketch.</desc>
    <g id="Page-1" stroke="none" stroke-width="1" fill="none" fill-rule="evenodd">
        <g id="Home-Copy-2" transform="translate(-1849.000000, -51.000000)" fill="#979CAF" fill-rule="nonzero">
            <g id="logout" transform="translate(1849.000000, 51.000000)">
                <path d="M0,3.1525 L0,15.5625 C0,17.2725 1.395,18.6675 3.105,18.6675 L13.135,18.6675 C14.845,18.6675 16.24,17.2725 16.24,15.5625 L16.24,13.5525 C16.24,13.2125 15.965,12.9375 15.625,12.9375 C15.285,12.9375 15.01,13.2125 15.01,13.5525 L15.01,15.5625 C15.01,16.5975 14.165,17.4425 13.13,17.4425 L3.105,17.4425 C2.07,17.4425 1.225,16.5975 1.225,15.5625 L1.225,3.1525 C1.225,2.1175 2.07,1.2725 3.105,1.2725 L13.135,1.2725 C14.17,1.2725 15.015,2.1175 15.015,3.1525 L15.015,5.1625 C15.015,5.5025 15.29,5.7775 15.63,5.7775 C15.97,5.7775 16.245,5.5025 16.245,5.1625 L16.245,3.1525 C16.245,1.4425 14.85,0.0475 13.14,0.0475 L3.105,0.0475 C1.395,0.0475 0,1.4375 0,3.1525 Z" id="Path"></path>
                <path d="M19.27,13.9825 C19.39,14.1025 19.545,14.1625 19.705,14.1625 C19.865,14.1625 20.02,14.1025 20.14,13.9825 L24.335,9.7875 C24.575,9.5475 24.575,9.1625 24.335,8.9225 L20.14,4.7275 C19.9,4.4875 19.515,4.4875 19.275,4.7275 C19.035,4.9675 19.035,5.3525 19.275,5.5925 L22.425,8.7425 L10.93,8.7425 C10.59,8.7425 10.315,9.0175 10.315,9.3575 C10.315,9.6975 10.59,9.9725 10.93,9.9725 L22.42,9.9725 L19.27,13.1225 C19.03,13.3575 19.03,13.7475 19.27,13.9825 Z" id="Path"></path>
            </g>
        </g>
    </g>
</svg>