<svg xmlns="http://www.w3.org/2000/svg" width="129" height="23" viewBox="0 0 129 23">
    <g fill="#FFF" fill-rule="evenodd">
        <path d="M7.92 2.883a2.88 2.88 0 1 1 5.76 0 2.88 2.88 0 0 1-5.76 0M.72 3.6C.72 2.01 2.007.72 3.597.72A2.88 2.88 0 1 1 .72 3.6M15.12 3.6a2.881 2.881 0 1 1 5.762.002A2.881 2.881 0 0 1 15.12 3.6M15.12 18c0-1.593 1.29-2.88 2.88-2.88A2.877 2.877 0 0 1 20.88 18a2.88 2.88 0 1 1-5.76 0M.72 18a2.88 2.88 0 1 1 5.76 0 2.88 2.88 0 0 1-5.76 0M7.2 11.161c0-1.788 1.61-3.241 3.598-3.241 1.99 0 3.602 1.453 3.602 3.241S12.789 14.4 10.798 14.4c-1.989 0-3.598-1.45-3.598-3.239M7.92 19.441a2.88 2.88 0 1 1 5.762 0 2.88 2.88 0 0 1-5.762 0M15.84 11.518a2.88 2.88 0 1 1 5.759.002 2.88 2.88 0 0 1-5.759-.002M0 11.52a2.88 2.88 0 1 1 5.759 0 2.88 2.88 0 0 1-5.759 0M39.6 1.44H23.76v4.618h4.981V20.16h5.881V6.058H39.6zM59.04 6.058h4.977V20.16h5.882l-.002-14.102h4.983V1.44H59.04zM76.32 6.058h4.98V20.16h5.886V6.058h4.974V1.44H76.32zM105.089 12.67c0 1.02-.283 1.811-.86 2.368-.562.557-1.342.83-2.34.83-1.01 0-1.802-.279-2.374-.843-.563-.564-.844-1.352-.844-2.356V1.44H92.88v10.962c0 .907.178 1.942.538 3.117.223.727.63 1.432 1.23 2.12.61.686 1.272 1.217 2 1.593.722.368 1.628.614 2.697.739 1.091.124 2.088.189 3.002.189 1.58 0 2.933-.206 4.065-.61.81-.295 1.58-.805 2.315-1.523a6.63 6.63 0 0 0 1.63-2.534 9.07 9.07 0 0 0 .523-3.091V1.44h-5.791v11.23zM128.144 10.943c-.482-.832-1.259-1.524-2.328-2.081-1.063-.563-2.826-1.117-5.294-1.665-.998-.214-1.62-.443-1.888-.693-.279-.24-.413-.508-.413-.81 0-.41.163-.754.495-1.037.334-.288.828-.436 1.485-.436.8 0 1.416.194 1.864.577.457.386.756 1 .897 1.848l5.322-.315c-.239-1.954-.965-3.372-2.195-4.263-1.222-.897-2.998-1.348-5.332-1.348-1.9.004-3.395.254-4.494.747-1.086.489-1.9 1.16-2.447 2.024-.542.857-.81 1.765-.81 2.736 0 1.469.529 2.675 1.593 3.624 1.053.95 2.813 1.708 5.292 2.285 1.506.339 2.471.705 2.888 1.09.411.38.622.815.622 1.306 0 .513-.224.966-.66 1.355-.437.387-1.052.58-1.858.58-1.078 0-1.908-.383-2.49-1.137-.355-.474-.588-1.158-.711-2.053l-5.362.343c.158 1.9.831 3.465 2.03 4.697 1.196 1.232 3.346 1.843 6.445 1.843 1.771 0 3.235-.26 4.399-.781 1.16-.531 2.062-1.303 2.714-2.32a6.081 6.081 0 0 0 .972-3.335c0-1.025-.246-1.952-.736-2.78M50.042 1.44a9.72 9.72 0 0 0-9.722 9.72c0 5.366 4.35 9.72 9.722 9.72 5.366 0 9.718-4.354 9.718-9.72 0-5.37-4.352-9.72-9.718-9.72m0 14.58a4.862 4.862 0 0 1-4.861-4.86 4.862 4.862 0 0 1 4.86-4.86 4.863 4.863 0 0 1 4.858 4.86 4.862 4.862 0 0 1-4.857 4.86"/>
    </g>
</svg>
